<svg width="39" height="38" viewBox="0 0 39 38" fill="none" xmlns="http://www.w3.org/2000/svg">
<path d="M7.71875 37.5H31.2812C35.5371 37.5 39 34.1703 39 30.0781V7.42188C39 3.32969 35.5371 0 31.2812 0H7.71875C3.46288 0 0 3.32969 0 7.42188V30.0781C0 34.1703 3.46288 37.5 7.71875 37.5ZM2.4375 7.42188C2.4375 4.62187 4.80675 2.34375 7.71875 2.34375H31.2812C34.1932 2.34375 36.5625 4.62187 36.5625 7.42188V30.0781C36.5625 32.8781 34.1932 35.1562 31.2812 35.1562H7.71875C4.80675 35.1562 2.4375 32.8781 2.4375 30.0781V7.42188Z" fill="#353535"/>
<path d="M19.5029 28.3291C24.9954 28.3291 29.4642 24.0322 29.4642 18.751C29.4642 13.4697 24.9954 9.17285 19.5029 9.17285C14.0104 9.17285 9.54163 13.4697 9.54163 18.751C9.54163 24.0322 14.0104 28.3291 19.5029 28.3291ZM19.5029 11.5166C23.6515 11.5166 27.0267 14.7619 27.0267 18.751C27.0267 22.74 23.6515 25.9853 19.5029 25.9853C15.3543 25.9853 11.9791 22.74 11.9791 18.751C11.9791 14.7619 15.3543 11.5166 19.5029 11.5166Z" fill="#353535"/>
<path d="M29.8289 11.5019C31.4311 11.5019 32.6385 10.3457 32.6385 8.81285C32.6385 7.21441 31.3677 6.12378 29.8305 6.12378C28.2282 6.12378 27.0209 7.28003 27.0209 8.81285C27.0209 10.4082 28.2851 11.5019 29.8289 11.5019ZM30.1165 8.55503C30.63 8.99097 29.4584 9.52066 29.4584 8.81441C29.4584 8.39253 30.0548 8.50191 30.1165 8.55503Z" fill="#353535"/>
</svg>
