<svg width="19" height="17" viewBox="0 0 19 17" fill="none" xmlns="http://www.w3.org/2000/svg">
<path d="M14.9281 10.4997C14.1665 10.1303 13.3911 10.3602 13.0704 10.7232L12.3998 11.4504C12.0591 11.8198 11.4223 11.7707 11.4223 11.7707C6.77576 10.7413 5.53318 6.66735 5.53318 6.66735C5.53318 6.66735 5.47614 6.11581 5.90164 5.82001L6.74031 5.23876C7.15964 4.95976 7.42481 4.2881 6.99777 3.62805C5.85693 1.9011 5.09072 1.30564 4.70068 0.848388C4.2906 0.418263 3.67393 0.321388 3.0326 0.612013H3.01872C1.68518 1.2656 0.225226 2.4888 0.69235 3.74818C1.48939 5.07601 2.95397 9.30881 7.62214 12.507C9.81593 14.0195 13.2878 15.5695 14.7616 15.9273L14.7755 15.9454C16.2277 16.351 17.6399 15.08 18.3938 13.9291V13.9201C18.7283 13.3633 18.6173 12.8363 18.1286 12.4915C17.2622 11.7836 15.9548 11.0022 14.9281 10.4997Z" fill="#353535"/>
</svg>
