<svg width="11" height="10" viewBox="0 0 11 10" fill="none" xmlns="http://www.w3.org/2000/svg">
<path d="M0.842251 0.550293C0.248709 0.550293 0.248709 1.32529 0.842251 1.33175C5.44721 1.36146 9.2397 4.05071 9.28133 8.98359C9.28133 9.50413 10.1909 9.49767 10.1832 8.97713H10.1817C10.1323 3.66192 5.99142 0.580001 0.842251 0.550293Z" fill="#353535"/>
<path d="M6.89956 8.166C6.88569 8.68009 7.79373 8.70463 7.80144 8.18409C7.87698 5.2533 5.72019 2.83917 1.66714 2.58471C1.0736 2.54855 1.01193 3.33 1.60393 3.36617C5.11894 3.58963 6.97048 5.59946 6.89956 8.166Z" fill="#353535"/>
<path d="M2.30214 5.46783C3.78369 5.54016 4.5021 6.18858 4.57919 7.52029C4.60694 8.04083 5.50881 8.00466 5.48106 7.48412C5.3824 5.74554 4.30015 4.77679 2.35148 4.68637C1.75794 4.65666 1.70243 5.43812 2.30214 5.46783Z" fill="#353535"/>
</svg>
