<svg width="34" height="27" viewBox="0 0 34 27" fill="none" xmlns="http://www.w3.org/2000/svg">
<path d="M2.73731 11.4505C12.9488 7.13095 26.1633 1.86455 27.9874 1.13564C32.7722 -0.772173 34.2404 -0.406548 33.5083 3.81845C32.9826 6.85517 31.4657 16.9091 30.2567 23.1669C29.5393 26.8778 27.9297 27.3177 25.3988 25.7122C24.1816 24.9395 18.0383 21.0333 16.705 20.1161C15.4879 19.2802 13.8092 18.2747 15.9144 16.2942C16.6636 15.5888 21.5743 11.0802 25.4004 7.5708C25.9017 7.10986 25.272 6.35283 24.6935 6.72236C19.5366 10.0106 12.3866 14.5747 11.4766 15.1692C10.1018 16.0669 8.7815 16.4786 6.41143 15.8239C4.62068 15.3294 2.87137 14.7395 2.19049 14.5145C-0.431443 13.6489 0.190932 12.5278 2.73731 11.4505Z" fill="#353535"/>
</svg>
