<svg xmlns="http://www.w3.org/2000/svg" width="27pt" height="27pt" viewBox="0 0 27 27" version="1.1">
<path fill="fill="#353535"" fill-rule="evenodd" d="M 0.980469 14.890625 L 13.320312 2.558594 L 25.65625 14.890625 C 25.886719 15.113281 26.253906 15.109375 26.476562 14.878906 C 26.691406 14.652344 26.691406 14.296875 26.476562 14.070312 L 13.726562 1.328125 C 13.503906 1.101562 13.136719 1.101562 12.910156 1.328125 L 0.164062 14.070312 C -0.0585938 14.304688 -0.0546875 14.671875 0.175781 14.890625 C 0.398438 15.109375 0.757812 15.109375 0.980469 14.890625 Z M 0.980469 14.890625 "/>
<path fill="fill="#353535"" fill-rule="evenodd" d="M 13.730469 11.753906 C 13.507812 11.527344 13.136719 11.527344 12.910156 11.753906 L 0.164062 24.496094 C -0.0585938 24.730469 -0.0507812 25.097656 0.179688 25.316406 C 0.398438 25.539062 0.757812 25.539062 0.980469 25.316406 L 13.320312 12.984375 L 25.65625 25.320312 C 25.886719 25.542969 26.253906 25.539062 26.476562 25.308594 C 26.691406 25.078125 26.691406 24.726562 26.476562 24.5 Z M 13.730469 11.753906 "/>
<path fill="fill="#353535"" fill-rule="evenodd" d="M 26.066406 15.058594 C 25.914062 15.058594 25.765625 15 25.65625 14.890625 L 13.320312 2.558594 L 0.980469 14.890625 C 0.753906 15.113281 0.386719 15.109375 0.164062 14.878906 C -0.0507812 14.652344 -0.0507812 14.296875 0.164062 14.070312 L 12.910156 1.328125 C 13.136719 1.101562 13.507812 1.101562 13.730469 1.328125 L 26.476562 14.070312 C 26.703125 14.296875 26.703125 14.664062 26.476562 14.890625 C 26.367188 15 26.21875 15.058594 26.066406 15.058594 Z M 26.066406 15.058594 "/>
<path fill="fill="#353535"" fill-rule="evenodd" d="M 26.066406 25.488281 C 25.914062 25.488281 25.765625 25.429688 25.65625 25.320312 L 13.320312 12.984375 L 0.980469 25.320312 C 0.753906 25.542969 0.386719 25.539062 0.164062 25.308594 C -0.0546875 25.078125 -0.0546875 24.726562 0.164062 24.5 L 12.910156 11.757812 C 13.136719 11.527344 13.507812 11.527344 13.730469 11.757812 L 26.476562 24.5 C 26.703125 24.726562 26.703125 25.09375 26.476562 25.320312 C 26.367188 25.429688 26.21875 25.488281 26.066406 25.488281 Z M 26.066406 25.488281 "/>
</svg>
