<svg width="143" height="33" viewBox="0 0 143 33" fill="none" xmlns="http://www.w3.org/2000/svg">
<path fill-rule="evenodd" clip-rule="evenodd" d="M6.06858 4.92541H5.95501L2.656 16.0823H0L5.12001 0H5.23359L14.2592 12.9893H14.4115L23.1701 0.0232344H23.2837L28.4399 16.0823H25.9374L22.526 4.81156H22.4125L14.2955 16.5866L6.06858 4.92541ZM31.8538 0.367113L34.3951 0.390347V16.0823L31.8538 16.059V0.367113ZM58.2092 12.4861H58.3615V0.367113L60.9015 0.390347V16.4483L42.8902 3.9412L42.7766 3.96327V16.0823H40.2353V0L58.2092 12.4861ZM66.7407 0.367113L69.2819 0.390347V16.0823L66.7407 16.059V0.367113ZM78.4598 4.92541H78.3461L75.0471 16.0823H72.3909L77.511 0H77.6247L86.6516 12.9893H86.8024L95.5626 0.0232344H95.6749L100.832 16.0823H98.3297L94.917 4.81156H94.8033L86.688 16.5866L78.4598 4.92541ZM119.224 8.45419L114.939 3.20802L110.618 8.45419H119.224ZM125.519 16.0823L120.437 9.91939H109.404L104.36 16.0823H101.744L114.978 0H115.053L128.287 16.0823H125.519ZM131.702 16.0823V0.367113L134.241 0.390347V14.6159H143V16.0823H131.702Z" fill="#353535"/>
<path fill-rule="evenodd" clip-rule="evenodd" d="M54.5656 31.229C54.7711 31.488 55.0623 31.7019 55.4406 31.8715C55.8187 32.04 56.261 32.1248 56.765 32.1248C57.055 32.1248 57.3232 32.0958 57.5722 32.0389C57.8187 31.9808 58.0313 31.9029 58.2103 31.803C58.3867 31.7042 58.5268 31.5845 58.6295 31.4462C58.7322 31.308 58.7854 31.1569 58.7854 30.9942C58.7854 30.7595 58.7032 30.5678 58.5449 30.4203C58.3867 30.2727 58.18 30.1495 57.9213 30.0496C57.664 29.9497 57.3703 29.8648 57.0393 29.7917C56.7081 29.7196 56.3722 29.6417 56.0375 29.5569C55.8127 29.5023 55.5819 29.4337 55.3439 29.3489C55.1045 29.2641 54.8895 29.1573 54.6986 29.0283C54.5064 28.8981 54.3493 28.7435 54.2285 28.5623C54.1077 28.3822 54.046 28.1684 54.046 27.9209C54.046 27.6735 54.1185 27.4457 54.2623 27.2377C54.4085 27.0309 54.6127 26.8496 54.8738 26.6962C55.1348 26.5417 55.4429 26.4232 55.7982 26.3384C56.1523 26.2546 56.5413 26.2117 56.962 26.2117C57.5505 26.2117 58.0567 26.2907 58.4821 26.4476C58.9075 26.6044 59.2555 26.7845 59.5273 26.9903L58.8411 27.4596C58.644 27.2726 58.3867 27.1146 58.07 26.9856C57.751 26.8554 57.3776 26.7903 56.9474 26.7903C56.3686 26.7903 55.9081 26.8995 55.5674 27.1157C55.2266 27.333 55.0551 27.6072 55.0551 27.9383C55.0551 28.1254 55.1166 28.2834 55.2375 28.4136C55.3596 28.5426 55.5131 28.6529 55.7003 28.7435C55.8876 28.8341 56.0955 28.9085 56.3239 28.969C56.5523 29.0295 56.7795 29.084 57.003 29.1317C57.293 29.1979 57.6048 29.2735 57.9359 29.3582C58.2683 29.4419 58.5691 29.5534 58.8411 29.6929C59.1105 29.8312 59.3376 30.0043 59.5201 30.2122C59.7014 30.4203 59.7932 30.6782 59.7932 30.9849C59.7932 31.2081 59.7268 31.4242 59.5975 31.6321C59.4657 31.839 59.2736 32.0214 59.015 32.1782C58.7575 32.3351 58.441 32.4618 58.0628 32.5583C57.6845 32.6546 57.2519 32.7023 56.765 32.7023C56.5885 32.7023 56.3782 32.6918 56.1342 32.6709C55.8912 32.65 55.6375 32.6024 55.3705 32.5268C55.1045 32.4514 54.8376 32.3432 54.5729 32.2014C54.3058 32.0598 54.0606 31.868 53.8357 31.6275L54.5656 31.229ZM61.3484 26.357L62.2886 26.3663V32.5583L61.3484 32.5489V26.357ZM64.4481 32.5583V26.357L65.3858 26.3663V31.9796H68.6243V32.5583H64.4481ZM68.8334 26.357L72.3657 31.3103H72.4215L75.8556 26.357H76.8788L72.3943 32.7023L67.782 26.357H68.8334ZM78.0571 32.5583V26.357H83.3274V26.9355H78.9959V29.1236H82.8498V29.7022H78.9959V31.9796H83.3274V32.5583H78.0571ZM85.9907 29.5383H87.1684C87.4586 29.5383 87.7268 29.5046 87.9734 29.4349C88.2223 29.3652 88.4361 29.2723 88.6184 29.1549C88.8014 29.0376 88.9423 28.8981 89.0452 28.7389C89.1482 28.5798 89.2011 28.4055 89.2011 28.2195C89.2011 28.0499 89.1539 27.8896 89.0595 27.735C88.9666 27.5816 88.8329 27.4457 88.6598 27.3283C88.4868 27.211 88.2709 27.1157 88.0099 27.0437C87.7461 26.9716 87.4479 26.9355 87.1133 26.9355H85.9907V29.5383ZM87.0418 26.357C87.5738 26.357 88.0385 26.4081 88.4361 26.5103C88.8329 26.6126 89.1625 26.7496 89.4235 26.9216C89.6873 27.0937 89.8839 27.2912 90.0133 27.5142C90.1449 27.7374 90.21 27.9686 90.21 28.2102C90.21 28.4392 90.1535 28.6564 90.0419 28.8609C89.929 29.0655 89.7681 29.2502 89.5579 29.4128C89.3484 29.5755 89.091 29.708 88.7864 29.8103C88.4832 29.9125 88.135 29.9729 87.7425 29.9903L91.1216 32.5583H89.8453L86.0458 29.6115H85.9907V32.5583H85.0512V26.357H87.0418Z" fill="#353535"/>
</svg>
