<svg width="314" height="262" viewBox="0 0 314 262" fill="none" xmlns="http://www.w3.org/2000/svg">
<path d="M313.4 198.5C313.6 198.5 313.7 198.7 313.7 199.1C313.7 199.5 313.6 199.7 313.4 199.7C311.2 199.7 309.267 200.3 307.6 201.5C305.933 202.7 304.5 204.733 303.3 207.6L282 260.9C281.933 261.167 281.567 261.3 280.9 261.3C280.367 261.3 280 261.167 279.8 260.9L266.8 232.6L255.5 260.9C255.433 261.167 255.067 261.3 254.4 261.3C253.867 261.3 253.5 261.167 253.3 260.9L228.4 206.8C227.2 204.133 226 202.3 224.8 201.3C223.6 200.233 221.967 199.7 219.9 199.7C219.7 199.7 219.6 199.5 219.6 199.1C219.6 198.7 219.7 198.5 219.9 198.5L223.7 198.6C225.567 198.733 227.067 198.8 228.2 198.8C230.6 198.8 233.2 198.733 236 198.6L240.1 198.5C240.3 198.5 240.4 198.7 240.4 199.1C240.4 199.5 240.3 199.7 240.1 199.7C238.1 199.7 236.6 199.933 235.6 200.4C234.667 200.867 234.2 201.667 234.2 202.8C234.2 203.8 234.533 205 235.2 206.4L256.5 252.1L265.5 229.8L254.9 206.8C253.767 204.267 252.6 202.467 251.4 201.4C250.2 200.267 248.633 199.7 246.7 199.7C246.5 199.7 246.4 199.5 246.4 199.1C246.4 198.7 246.5 198.5 246.7 198.5L250.4 198.6C252.267 198.733 253.7 198.8 254.7 198.8C256.633 198.8 258.6 198.733 260.6 198.6L263.4 198.5C263.6 198.5 263.7 198.7 263.7 199.1C263.7 199.5 263.6 199.7 263.4 199.7C262.133 199.7 261.233 199.8 260.7 200C260.233 200.2 260 200.6 260 201.2C260 202.067 260.6 203.8 261.8 206.4L269.1 222L275 207.1C275.733 205.1 276.1 203.6 276.1 202.6C276.1 201.6 275.767 200.867 275.1 200.4C274.433 199.933 273.367 199.7 271.9 199.7C271.7 199.7 271.6 199.5 271.6 199.1C271.6 198.7 271.7 198.5 271.9 198.5L274.2 198.6C275.533 198.733 276.933 198.8 278.4 198.8C279.733 198.8 281.267 198.733 283 198.6L287.1 198.5C287.233 198.5 287.3 198.7 287.3 199.1C287.3 199.5 287.233 199.7 287.1 199.7C284.833 199.7 282.9 200.3 281.3 201.5C279.7 202.633 278.333 204.667 277.2 207.6L270.4 224.7L283.1 252.1L301 207.3C301.533 205.9 301.8 204.733 301.8 203.8C301.8 202.4 301.2 201.367 300 200.7C298.8 200.033 296.9 199.7 294.3 199.7C294.1 199.7 294 199.5 294 199.1C294 198.7 294.1 198.5 294.3 198.5L298.5 198.6C300.633 198.733 302.633 198.8 304.5 198.8C305.9 198.8 307.467 198.733 309.2 198.6L313.4 198.5Z" fill="#E0EFF2"/>
<path d="M173.145 154.1C173.145 153.967 173.278 153.9 173.545 153.9C173.745 153.9 173.911 153.933 174.045 154C174.245 154.067 174.345 154.167 174.345 154.3C173.745 158.5 173.445 162.9 173.445 167.5C173.445 168.033 173.311 168.433 173.045 168.7C172.845 168.9 172.445 169 171.845 169H129.945C129.811 169 129.745 168.8 129.745 168.4C129.745 168 129.811 167.8 129.945 167.8C132.478 167.8 134.311 167.633 135.445 167.3C136.645 166.967 137.445 166.333 137.845 165.4C138.311 164.4 138.545 162.9 138.545 160.9V114.6C138.545 112.6 138.311 111.133 137.845 110.2C137.445 109.267 136.645 108.633 135.445 108.3C134.311 107.9 132.478 107.7 129.945 107.7C129.811 107.7 129.745 107.5 129.745 107.1C129.745 106.7 129.811 106.5 129.945 106.5H170.145C170.745 106.5 171.045 106.8 171.045 107.4L171.245 119.7C171.245 119.9 171.078 120.033 170.745 120.1C170.411 120.1 170.211 120 170.145 119.8C169.945 116.267 168.878 113.533 166.945 111.6C165.011 109.6 162.445 108.6 159.245 108.6H153.145C150.811 108.6 149.078 108.8 147.945 109.2C146.878 109.533 146.111 110.167 145.645 111.1C145.245 111.967 145.045 113.3 145.045 115.1V135.4H157.245C160.445 135.4 162.711 134.867 164.045 133.8C165.445 132.733 166.145 130.933 166.145 128.4C166.145 128.267 166.345 128.2 166.745 128.2C167.145 128.2 167.345 128.267 167.345 128.4L167.245 136.5C167.245 138.433 167.278 139.9 167.345 140.9L167.445 145.7C167.445 145.833 167.245 145.9 166.845 145.9C166.445 145.9 166.245 145.833 166.245 145.7C166.245 142.767 165.511 140.667 164.045 139.4C162.645 138.133 160.278 137.5 156.945 137.5H145.045V160.5C145.045 162.367 145.245 163.733 145.645 164.6C146.045 165.467 146.778 166.067 147.845 166.4C148.911 166.733 150.578 166.9 152.845 166.9H160.845C164.045 166.9 166.711 165.767 168.845 163.5C170.978 161.233 172.411 158.1 173.145 154.1Z" fill="#E0EFF2"/>
<path d="M80.5719 29.5C80.7719 29.5 80.8719 29.7 80.8719 30.1C80.8719 30.5 80.7719 30.7 80.5719 30.7C77.7719 30.7 75.7385 31.4667 74.4719 33C73.2052 34.5333 72.5719 37.0333 72.5719 40.5V93.2C72.5719 93.3333 72.4052 93.4333 72.0719 93.5C71.7385 93.5667 71.5052 93.5333 71.3719 93.4L25.3719 37.7L24.4719 36.7V81.1C24.4719 84.5667 25.0719 87.0667 26.2719 88.6C27.5385 90.0667 29.5385 90.8 32.2719 90.8C32.4719 90.8 32.5719 91 32.5719 91.4C32.5719 91.8 32.4719 92 32.2719 92C30.6052 92 29.3385 91.9667 28.4719 91.9L23.4719 91.8L18.3719 91.9C17.4385 91.9667 16.0719 92 14.2719 92C14.1385 92 14.0719 91.8 14.0719 91.4C14.0719 91 14.1385 90.8 14.2719 90.8C17.1385 90.8 19.1719 90.0667 20.3719 88.6C21.5719 87.0667 22.1719 84.5667 22.1719 81.1V34.3C19.5719 31.9 16.9385 30.7 14.2719 30.7C14.0719 30.7 13.9719 30.5 13.9719 30.1C13.9719 29.7 14.0719 29.5 14.2719 29.5L17.9719 29.6C18.7719 29.6667 19.8719 29.7 21.2719 29.7C22.7385 29.7 23.9385 29.6667 24.8719 29.6C25.8052 29.5333 26.5385 29.5 27.0719 29.5C27.6052 29.5 27.9719 29.6333 28.1719 29.9C28.4385 30.1 28.8385 30.6 29.3719 31.4C30.1719 32.6 30.9719 33.7 31.7719 34.7L70.2719 82V40.5C70.2719 37.0333 69.6719 34.5333 68.4719 33C67.3385 31.4667 65.4052 30.7 62.6719 30.7C62.5385 30.7 62.4719 30.5 62.4719 30.1C62.4719 29.7 62.5385 29.5 62.6719 29.5L66.5719 29.6C68.5719 29.7333 70.2052 29.8 71.4719 29.8C72.6719 29.8 74.3385 29.7333 76.4719 29.6L80.5719 29.5Z" fill="#E0EFF2"/>
</svg>
